<svg width="22" height="22" viewBox="0 0 22 22" fill="none" xmlns="http://www.w3.org/2000/svg">
<path d="M5 2C5 0.895431 5.89543 0 7 0C8.10457 0 9 0.895431 9 2V12H7C5.89543 12 5 11.1046 5 10V2Z" fill="#00C5F1"/>
<path d="M2 17C0.895431 17 0 16.1046 0 15V15C0 13.8954 0.895431 13 2 13H12V15C12 16.1046 11.1046 17 10 17H2Z" fill="#FF1D59"/>
<path d="M17 20C17 21.1046 16.1046 22 15 22V22C13.8954 22 13 21.1046 13 20L13 10H15C16.1046 10 17 10.8954 17 12V20Z" fill="#FFB02E"/>
<path d="M20 5C21.1046 5 22 5.89543 22 7C22 8.10457 21.1046 9 20 9L10 9V7C10 5.89543 10.8954 5 12 5L20 5Z" fill="#03B67C"/>
<path d="M0 7C0 5.89543 0.895431 5 2 5C3.10457 5 4 5.89543 4 7V9H2C0.895431 9 0 8.10457 0 7Z" fill="#03B67C"/>
<path d="M7 22C5.89543 22 5 21.1046 5 20V20C5 18.8954 5.89543 18 7 18H9V20C9 21.1046 8.10457 22 7 22V22Z" fill="#00C5F1"/>
<path d="M15 0C16.1046 0 17 0.895431 17 2C17 3.10457 16.1046 4 15 4L13 4V2C13 0.895431 13.8954 0 15 0Z" fill="#FFB02E"/>
<path d="M22 15C22 16.1046 21.1046 17 20 17V17C18.8954 17 18 16.1046 18 15V13L20 13C21.1046 13 22 13.8954 22 15V15Z" fill="#FF1D59"/>
</svg>
